<?xml version="1.0" encoding="UTF-8"?><svg xmlns="http://www.w3.org/2000/svg" xmlns:xlink="http://www.w3.org/1999/xlink" stroke-dasharray="none" shape-rendering="auto" font-family="'Dialog'" width="304" text-rendering="auto" fill-opacity="1" contentScriptType="text/ecmascript" color-interpolation="auto" color-rendering="auto" preserveAspectRatio="xMidYMid meet" font-size="12" viewBox="0 0 304 254" fill="black" stroke="black" image-rendering="auto" stroke-miterlimit="10" zoomAndPan="magnify" version="1.0" stroke-linecap="square" stroke-linejoin="miter" contentStyleType="text/css" font-style="normal" height="254" stroke-width="1" stroke-dashoffset="0" font-weight="normal" stroke-opacity="1">
<!--Generated by the Batik Graphics2D SVG Generator-->
<defs id="genericDefs"/>
<g>
<defs id="defs1">
<clipPath clipPathUnits="userSpaceOnUse" id="clipPath1">
<path d="M41 12 L63 12 L63 34 L41 34 L41 12 Z"/>
</clipPath>
<clipPath clipPathUnits="userSpaceOnUse" id="clipPath2">
<path d="M9 107 L95 107 L95 149 L9 149 L9 107 Z"/>
</clipPath>
<clipPath clipPathUnits="userSpaceOnUse" id="clipPath3">
<path d="M15 121 L89 121 L89 134 L15 134 L15 121 Z"/>
</clipPath>
<clipPath clipPathUnits="userSpaceOnUse" id="clipPath4">
<path d="M205 107 L295 107 L295 149 L205 149 L205 107 Z"/>
</clipPath>
<clipPath clipPathUnits="userSpaceOnUse" id="clipPath5">
<path d="M211 121 L289 121 L289 134 L211 134 L211 121 Z"/>
</clipPath>
<clipPath clipPathUnits="userSpaceOnUse" id="clipPath6">
<path d="M92 203 L198 203 L198 245 L92 245 L92 203 Z"/>
</clipPath>
<clipPath clipPathUnits="userSpaceOnUse" id="clipPath7">
<path d="M98 217 L192 217 L192 230 L98 230 L98 217 Z"/>
</clipPath>
<clipPath clipPathUnits="userSpaceOnUse" id="clipPath8">
<path d="M-1 -1 L305 -1 L305 255 L-1 255 L-1 -1 Z"/>
</clipPath>
<clipPath clipPathUnits="userSpaceOnUse" id="clipPath9">
<path d="M48 100 L57 100 L57 110 L48 110 L48 100 Z"/>
</clipPath>
<clipPath clipPathUnits="userSpaceOnUse" id="clipPath10">
<path d="M-1 -1 L305 -1 L305 255 L-1 255 L-1 -1 Z"/>
</clipPath>
<clipPath clipPathUnits="userSpaceOnUse" id="clipPath11">
<path d="M198 122 L208 122 L208 131 L198 131 L198 122 Z"/>
</clipPath>
<clipPath clipPathUnits="userSpaceOnUse" id="clipPath12">
<path d="M-1 -1 L305 -1 L305 255 L-1 255 L-1 -1 Z"/>
</clipPath>
<clipPath clipPathUnits="userSpaceOnUse" id="clipPath13">
<path d="M193 196 L203 196 L203 206 L193 206 L193 196 Z"/>
</clipPath>
<clipPath clipPathUnits="userSpaceOnUse" id="clipPath14">
<path d="M-1 -1 L305 -1 L305 255 L-1 255 L-1 -1 Z"/>
</clipPath>
<clipPath clipPathUnits="userSpaceOnUse" id="clipPath15">
<path d="M59 147 L69 147 L69 157 L59 157 L59 147 Z"/>
</clipPath>
</defs>
<g font-size="9" fill="white" stroke-linejoin="round" stroke="white" stroke-width="0" stroke-miterlimit="0">
<circle clip-path="url(#clipPath1)" fill="black" r="6.5" cx="51.5" cy="24.5" stroke="none"/>
<rect x="43" y="13" clip-path="url(#clipPath1)" fill="black" width="18" height="3" stroke="none"/>
</g>
<g font-size="9" fill="white" stroke-linejoin="round" stroke="white" stroke-width="0" stroke-miterlimit="0">
<rect x="10" y="108" clip-path="url(#clipPath2)" uuid="_dyVGAPZ4EeipuOADhlr5og" width="84" rx="4" ry="4" height="40" stroke="none" stroke-width="1.1"/>
</g>
<g fill="rgb(176,176,176)" font-size="9" stroke-width="1.1" stroke-linecap="butt" stroke="rgb(176,176,176)">
<rect x="10" y="108" clip-path="url(#clipPath2)" fill="none" width="83" rx="4" ry="4" height="39"/>
<text x="16" y="131" clip-path="url(#clipPath3)" fill="black" stroke="none" xml:space="preserve">Look for Targets</text>
</g>
<g fill="white" font-size="9" stroke-width="1.1" stroke-linecap="butt" stroke="white">
<rect x="206" y="108" clip-path="url(#clipPath4)" uuid="_k38d0fZ4EeipuOADhlr5og" width="88" rx="4" ry="4" height="40" stroke="none"/>
<rect x="206" y="108" clip-path="url(#clipPath4)" fill="none" width="87" rx="4" ry="4" height="39" stroke="rgb(176,176,176)"/>
<text x="212" y="131" clip-path="url(#clipPath5)" fill="black" stroke="none" xml:space="preserve">Attack the Target</text>
</g>
<g fill="white" font-size="9" stroke-width="1.1" stroke-linecap="butt" stroke="white">
<rect x="93" y="204" clip-path="url(#clipPath6)" uuid="_zkhpYPasEeipuOADhlr5og" width="104" rx="4" ry="4" height="40" stroke="none"/>
<rect x="93" y="204" clip-path="url(#clipPath6)" fill="none" width="103" rx="4" ry="4" height="39" stroke="rgb(176,176,176)"/>
<text x="99" y="227" clip-path="url(#clipPath7)" fill="black" stroke="none" xml:space="preserve">look for a new target</text>
</g>
<g stroke-linecap="butt" font-size="9">
<line clip-path="url(#clipPath8)" fill="none" uuid="_iDARAfZ4EeipuOADhlr5og" x1="52" x2="52" y1="23" y2="108"/>
<polygon uuid="_iDARAfZ4EeipuOADhlr5og" clip-path="url(#clipPath9)" points=" 52 108 49 101 55 101" stroke="none"/>
<polygon uuid="_iDARAfZ4EeipuOADhlr5og" fill="none" clip-path="url(#clipPath9)" points=" 52 108 49 101 55 101"/>
</g>
<g stroke-linecap="butt" font-size="9">
<line clip-path="url(#clipPath10)" fill="none" uuid="_uNkJYfZ4EeipuOADhlr5og" x1="94" x2="206" y1="126" y2="126"/>
<polygon uuid="_uNkJYfZ4EeipuOADhlr5og" clip-path="url(#clipPath11)" points=" 206 126 199 129 199 123" stroke="none"/>
<polygon uuid="_uNkJYfZ4EeipuOADhlr5og" fill="none" clip-path="url(#clipPath11)" points=" 206 126 199 129 199 123"/>
</g>
<g stroke-linecap="butt" font-size="9">
<line clip-path="url(#clipPath12)" fill="none" uuid="_3lXoofasEeipuOADhlr5og" x1="270" x2="194" y1="148" y2="204"/>
<polygon uuid="_3lXoofasEeipuOADhlr5og" clip-path="url(#clipPath13)" points=" 194 204 198 197 201 202" stroke="none"/>
<polygon uuid="_3lXoofasEeipuOADhlr5og" fill="none" clip-path="url(#clipPath13)" points=" 194 204 198 197 201 202"/>
</g>
<g stroke-linecap="butt" font-size="9">
<line clip-path="url(#clipPath14)" fill="none" uuid="_4S6rIPasEeipuOADhlr5og" x1="103" x2="60" y1="204" y2="148"/>
<polygon uuid="_4S6rIPasEeipuOADhlr5og" clip-path="url(#clipPath15)" points=" 60 148 67 152 62 155" stroke="none"/>
<polygon uuid="_4S6rIPasEeipuOADhlr5og" fill="none" clip-path="url(#clipPath15)" points=" 60 148 67 152 62 155"/>
</g>
</g>
</svg>
